{
  "accessors": [
    {
      "bufferView": 2,
      "componentType": 5126,
      "count": 1109,
      "max": [
        216.02174377441406,
        188.8966064453125,
        138.47451782226563
      ],
      "min": [
        -187.28884887695313,
        -9.380882263183594,
        -144.42953491210938
      ],
      "type": "VEC3"
    },
    {
      "bufferView": 2,
      "byteOffset": 13308,
      "componentType": 5126,
      "count": 1109,
      "max": [
        0.9977019429206848,
        0.999449610710144,
        0.9983431100845337
      ],
      "min": [
        -0.9966484308242798,
        -1.0,
        -0.9992278814315796
      ],
      "type": "VEC3"
    },
    {
      "bufferView": 3,
      "componentType": 5126,
      "count": 1109,
      "max": [
        0.997148334980011,
        0.999583899974823,
        0.9932531714439392,
        1.0
      ],
      "min": [
        -0.9994922280311584,
        -0.9999772310256958,
        -0.9973370432853699,
        1.0
      ],
      "type": "VEC4"
    },
    {
      "bufferView": 1,
      "componentType": 5126,
      "count": 1109,
      "max": [
        0.9306309819221497,
        0.9900000095367432
      ],
      "min": [
        0.009999999776482582,
        0.020113999024033546
      ],
      "type": "VEC2"
    },
    {
      "bufferView": 1,
      "byteOffset": 8872,
      "componentType": 5126,
      "count": 1109,
      "max": [
        0.9306309819221497,
        0.9900000095367432
      ],
      "min": [
        0.009999999776482582,
        0.020113999024033546
      ],
      "type": "VEC2"
    },
    {
      "bufferView": 1,
      "byteOffset": 17744,
      "componentType": 5126,
      "count": 1109,
      "max": [
        0.9306309819221497,
        0.9900000095367432
      ],
      "min": [
        0.009999999776482582,
        0.020113999024033546
      ],
      "type": "VEC2"
    },
    {
      "bufferView": 0,
      "componentType": 5125,
      "count": 5250,
      "type": "SCALAR"
    }
  ],
  "asset": {
    "extras": {
      "author": "lyningsknallis (https://sketchfab.com/lyningsknallis)",
      "license": "CC-BY-4.0 (http://creativecommons.org/licenses/by/4.0/)",
      "source": "https://sketchfab.com/3d-models/underwater-cliff-2-9dfd9a3c4256476db1104fbf5cfcb48c",
      "title": "Underwater Cliff 2"
    },
    "generator": "Sketchfab-12.67.0",
    "version": "2.0"
  },
  "bufferViews": [
    {
      "buffer": 0,
      "byteLength": 21000,
      "name": "floatBufferViews",
      "target": 34963
    },
    {
      "buffer": 0,
      "byteLength": 26616,
      "byteOffset": 21000,
      "byteStride": 8,
      "name": "floatBufferViews",
      "target": 34962
    },
    {
      "buffer": 0,
      "byteLength": 26616,
      "byteOffset": 47616,
      "byteStride": 12,
      "name": "floatBufferViews",
      "target": 34962
    },
    {
      "buffer": 0,
      "byteLength": 17744,
      "byteOffset": 74232,
      "byteStride": 16,
      "name": "floatBufferViews",
      "target": 34962
    }
  ],
  "buffers": [
    {
      "byteLength": 91976,
      "uri": "scene.bin"
    }
  ],
  "images": [
    {
      "uri": "textures/Default5_baseColor.png"
    },
    {
      "uri": "textures/Default5_metallicRoughness.png"
    },
    {
      "uri": "textures/Default5_normal.png"
    }
  ],
  "materials": [
    {
      "doubleSided": true,
      "name": "Default5",
      "normalTexture": {
        "index": 2
      },
      "pbrMetallicRoughness": {
        "baseColorTexture": {
          "index": 0
        },
        "metallicRoughnessTexture": {
          "index": 1
        }
      }
    }
  ],
  "meshes": [
    {
      "name": "cliff2_Default5_0",
      "primitives": [
        {
          "attributes": {
            "NORMAL": 1,
            "POSITION": 0,
            "TANGENT": 2,
            "TEXCOORD_0": 3,
            "TEXCOORD_1": 4,
            "TEXCOORD_2": 5
          },
          "indices": 6,
          "material": 0,
          "mode": 4
        }
      ]
    }
  ],
  "nodes": [
    {
      "children": [
        1
      ],
      "matrix": [
        1.0,
        0.0,
        0.0,
        0.0,
        0.0,
        2.220446049250313e-16,
        -1.0,
        0.0,
        0.0,
        1.0,
        2.220446049250313e-16,
        0.0,
        0.0,
        0.0,
        0.0,
        1.0
      ],
      "name": "Sketchfab_model"
    },
    {
      "children": [
        2
      ],
      "matrix": [
        1.0,
        0.0,
        0.0,
        0.0,
        0.0,
        0.0,
        1.0,
        0.0,
        0.0,
        -1.0,
        0.0,
        0.0,
        0.0,
        0.0,
        0.0,
        1.0
      ],
      "name": "cliff2.fbx"
    },
    {
      "children": [
        3
      ],
      "name": "RootNode"
    },
    {
      "children": [
        4
      ],
      "name": "cliff2"
    },
    {
      "mesh": 0,
      "name": "cliff2_Default5_0"
    }
  ],
  "samplers": [
    {
      "magFilter": 9729,
      "minFilter": 9987,
      "wrapS": 10497,
      "wrapT": 10497
    }
  ],
  "scene": 0,
  "scenes": [
    {
      "name": "Sketchfab_Scene",
      "nodes": [
        0
      ]
    }
  ],
  "textures": [
    {
      "sampler": 0,
      "source": 0
    },
    {
      "sampler": 0,
      "source": 1
    },
    {
      "sampler": 0,
      "source": 2
    }
  ]
}
